<svg width="232" height="220" viewBox="0 0 232 220" fill="none" xmlns="http://www.w3.org/2000/svg">
<g clip-path="url(#clip0_2187_4154)">
<path d="M185.026 9.04413C172.64 3.24279 158.746 -1.91758 145.536 1.65122C140.175 3.10156 135.262 5.93161 129.896 7.37108C123.564 9.07129 116.854 8.77253 110.358 7.85453C95.1115 5.7089 80.3013 0.249776 64.8962 0.0053377C49.491 -0.239101 32.3171 6.61061 27.1748 21.0596C24.8384 27.6269 25.3024 34.7916 25.1823 41.7554C24.8875 59.2898 20.6677 76.7481 12.927 92.5008C6.03775 106.515 -3.89208 121.801 1.58871 136.418C7.86104 153.138 30.6958 157.972 39.1518 173.709C44.0812 182.878 43.1423 193.932 42.2142 204.291C42.0395 206.262 41.8758 208.299 42.509 210.173C43.6226 213.465 46.9089 215.513 50.1352 216.833C62.8054 222.026 77.2989 220.114 90.4222 216.208C97.0549 214.231 103.627 211.727 109.256 207.713C114.857 203.715 119.409 198.305 125.381 194.877C136.294 188.609 149.783 189.994 162.366 190.667C173.486 191.265 184.638 191.151 195.742 190.331C203.111 189.787 210.601 188.891 217.305 185.795C224.008 182.699 229.882 177.049 231.531 169.885C233.589 160.933 228.665 151.644 221.896 145.403C218.287 142.078 214.149 139.352 210.645 135.924C198.837 124.365 195.851 106.564 196.064 90.0836C196.211 78.5298 197.893 66.3079 205.148 57.2854C208.641 52.9398 213.265 49.5612 216.524 45.0363C234.249 20.4295 201.212 16.6326 185.031 9.04956L185.026 9.04413Z" fill="#DCEAFF"/>
<g clip-path="url(#clip1_2187_4154)">
<path d="M76.9763 7.72275L78.2983 7.98338L75.1876 6.15893C75.071 6.08684 74.9543 6.02029 74.8321 5.95374L74.7155 5.8872C71.9547 4.42874 68.2386 4.7282 64.1503 7.14602C55.6348 12.1924 48.7246 24.5088 48.7246 34.6681C48.7246 39.4927 50.2855 42.9586 52.8352 44.7276H52.8296L52.8796 44.7553C53.1462 44.9383 53.4184 45.1047 53.7073 45.2489L56.7513 47.0567L56.6124 46.0419C58.8399 46.2138 61.4117 45.5483 64.1558 43.9235C72.6769 38.8771 79.5815 26.5607 79.5815 16.4014C79.5815 12.6194 78.626 9.67475 76.9818 7.72275H76.9763ZM64.1503 35.5998C59.4842 38.3614 55.707 36.0933 55.707 30.5312C55.707 24.9691 59.4898 18.2258 64.1503 15.4642C68.8163 12.7026 72.5935 14.9707 72.5935 20.5328C72.5935 26.0948 68.8107 32.8381 64.1503 35.5998Z" fill="#024C9A"/>
<path d="M67.6554 9.20335C59.1399 14.2497 52.2297 26.5662 52.2297 36.7255C52.2297 46.8847 59.1343 51.0216 67.6554 45.9808C76.1764 40.9345 83.081 28.618 83.081 18.4587C83.081 8.29944 76.1709 4.16253 67.6554 9.20335ZM67.6554 37.6571C62.9894 40.4187 59.2121 38.1506 59.2121 32.5885C59.2121 27.0264 62.9949 20.2832 67.6554 17.5215C72.3214 14.7599 76.0987 17.028 76.0987 22.5901C76.0987 28.1522 72.3159 34.8955 67.6554 37.6571Z" fill="#0291DB"/>
<path d="M83.0754 18.6196C83.0754 8.46586 76.1708 4.32341 67.6498 9.36423C59.1343 14.4106 52.2241 26.7271 52.2241 36.8863C52.2241 47.0456 59.1287 51.1825 67.6498 46.1417C76.1708 41.0953 83.0754 28.7789 83.0754 18.6196ZM59.2065 32.755C59.2065 27.1929 62.9893 20.4496 67.6498 17.688C72.3102 14.9263 76.0931 17.1944 76.0931 22.7565C76.0931 28.3186 72.3102 35.0619 67.6498 37.8235C62.9837 40.5852 59.2065 38.3171 59.2065 32.755Z" fill="#026ECE"/>
<path d="M81.0979 19.6288C81.0979 10.7782 75.0766 7.16261 67.6498 11.5602C60.2231 15.9577 54.2017 26.6993 54.2017 35.5498C54.2017 44.4004 60.2231 48.016 67.6498 43.6184C75.0766 39.2209 81.0979 28.4794 81.0979 19.6288Z" fill="white"/>
<path d="M67.6552 28.7621C67.0109 28.7621 66.4832 28.2408 66.4832 27.592V15.7414C66.4832 15.0981 67.0053 14.5713 67.6552 14.5713C68.3051 14.5713 68.8273 15.0926 68.8273 15.7414V27.592C68.8273 28.2353 68.3051 28.7621 67.6552 28.7621Z" fill="#026ECE"/>
<path d="M74.5933 33.3482C74.4933 33.3482 74.3933 33.315 74.31 33.254L67.372 27.9636C67.1665 27.8083 67.1276 27.5144 67.2832 27.3092C67.4387 27.1041 67.7331 27.0652 67.9386 27.2205L74.8766 32.5109C75.0821 32.6661 75.121 32.9601 74.9654 33.1652C74.871 33.2872 74.7321 33.3482 74.5933 33.3482Z" fill="#026ECE"/>
<path d="M70.5659 25.8674C70.5659 23.9487 69.2606 23.1668 67.6497 24.1206C66.0388 25.0744 64.7334 27.4035 64.7334 29.3167C64.7334 31.2299 66.0388 32.0174 67.6497 31.0635C69.2606 30.1097 70.5659 27.7806 70.5659 25.8619V25.8674Z" fill="#FB2949"/>
<path d="M69.0828 26.8159C69.0828 25.9563 68.4995 25.6014 67.7719 26.0284C67.0442 26.4554 66.4609 27.5035 66.4609 28.363C66.4609 29.2226 67.0442 29.5775 67.7719 29.1505C68.494 28.7235 69.0828 27.6754 69.0828 26.8159Z" fill="#FECD16"/>
<path d="M135.263 108.517C133.313 107.386 130.13 107.397 128.191 108.539L77.4983 138.557C75.5874 139.688 75.593 141.54 77.5094 142.672L94.4293 152.371C96.3623 153.513 99.5341 153.535 101.473 152.42L152.627 122.32C154.593 121.188 154.593 119.325 152.627 118.183L135.263 108.517Z" fill="#A6ADC2"/>
<path d="M135.263 107.835C133.313 106.704 130.13 106.715 128.191 107.857L77.4983 137.875C75.5874 139.006 75.593 140.858 77.5094 141.989L94.4293 151.688C96.3623 152.831 99.5341 152.853 101.473 151.738L152.627 121.638C154.593 120.506 154.593 118.643 152.627 117.501L135.263 107.835Z" fill="#E1D9E6"/>
<path d="M80.8922 141.801L82.5753 142.738L86.2137 140.564L84.6306 139.655C83.9918 139.278 82.9419 139.272 82.2976 139.638L80.8922 140.426C80.2423 140.803 80.2423 141.418 80.8922 141.796V141.801Z" fill="#82827C"/>
<path d="M85.9081 138.851L87.5912 139.788L91.2296 137.614L89.6465 136.71C89.0077 136.333 87.9522 136.322 87.3134 136.694L85.9081 137.481C85.2582 137.858 85.2582 138.474 85.9081 138.851Z" fill="#82827C"/>
<path d="M90.9186 135.895L92.6017 136.832L96.2401 134.658L94.657 133.754C94.0182 133.377 92.9683 133.366 92.3239 133.738L90.9186 134.525C90.2687 134.902 90.2687 135.518 90.9186 135.895Z" fill="#82827C"/>
<path d="M95.9347 132.945L97.6178 133.882L101.256 131.708L99.6731 130.804C99.0343 130.422 97.9844 130.416 97.3401 130.788L95.9347 131.575C95.2848 131.952 95.2848 132.568 95.9347 132.945Z" fill="#82827C"/>
<path d="M100.951 129.989L102.634 130.926L106.272 128.753L104.689 127.849C104.05 127.472 103 127.461 102.356 127.832L100.951 128.62C100.301 128.997 100.301 129.612 100.951 129.989Z" fill="#82827C"/>
<path d="M105.961 127.039L107.644 127.976L111.283 125.802L109.699 124.898C109.061 124.516 108.011 124.51 107.366 124.882L105.961 125.669C105.311 126.046 105.311 126.662 105.961 127.039Z" fill="#82827C"/>
<path d="M110.977 124.089L112.66 125.026L116.298 122.852L114.715 121.948C114.077 121.571 113.027 121.56 112.382 121.932L110.977 122.719C110.327 123.096 110.327 123.712 110.977 124.089Z" fill="#82827C"/>
<path d="M115.993 121.133L117.676 122.07L121.314 119.896L119.731 118.993C119.093 118.615 118.043 118.604 117.398 118.976L115.987 119.763C115.338 120.14 115.338 120.756 115.987 121.133H115.993Z" fill="#82827C"/>
<path d="M121.003 118.183L122.686 119.12L126.325 116.946L124.742 116.042C124.103 115.665 123.053 115.654 122.409 116.026L121.003 116.813C120.353 117.19 120.353 117.806 121.003 118.183Z" fill="#82827C"/>
<path d="M126.019 115.227L127.703 116.164L131.341 113.99L129.758 113.087C129.119 112.709 128.069 112.698 127.425 113.07L126.019 113.857C125.37 114.234 125.37 114.85 126.019 115.227Z" fill="#82827C"/>
<path d="M131.035 112.277L132.713 113.214L136.357 111.04L134.779 110.136C134.135 109.754 133.085 109.748 132.446 110.12L131.041 110.907C130.391 111.284 130.391 111.9 131.041 112.277H131.035Z" fill="#82827C"/>
<path d="M124.736 127.377L123.153 126.473C122.514 126.096 121.459 126.085 120.82 126.457L119.415 127.244C118.765 127.621 118.765 128.237 119.415 128.614L121.098 129.551L124.736 127.377ZM133.979 115.349C133.335 114.972 132.285 114.966 131.646 115.332L130.241 116.12C129.591 116.497 129.591 117.113 130.241 117.49L131.924 118.427L135.563 116.253L133.979 115.349ZM131.035 112.277L132.713 113.214L136.357 111.04L134.779 110.136C134.135 109.754 133.085 109.748 132.446 110.12L131.041 110.907C130.391 111.284 130.391 111.9 131.041 112.277H131.035ZM128.13 110.591L128.608 110.841L132.246 108.667L131.869 108.451C131.23 108.073 130.174 108.062 129.536 108.434L128.13 109.221C127.48 109.593 127.48 110.214 128.13 110.591ZM129.752 124.421L128.169 123.518C127.53 123.14 126.48 123.129 125.836 123.501L124.431 124.288C123.781 124.665 123.781 125.281 124.431 125.658L126.114 126.595L129.752 124.421ZM134.763 121.466L133.185 120.562C132.546 120.179 131.496 120.174 130.852 120.545L129.447 121.333C128.797 121.71 128.797 122.325 129.447 122.702L131.124 123.64L134.763 121.466ZM115.993 121.127L117.676 122.065L121.315 119.891L119.731 118.987C119.093 118.61 118.043 118.599 117.398 118.97L115.988 119.758C115.338 120.135 115.338 120.75 115.988 121.127H115.993ZM118.104 116.491L118.582 116.741L122.22 114.567L121.842 114.351C121.203 113.968 120.154 113.963 119.509 114.334L118.104 115.122C117.454 115.499 117.454 116.114 118.104 116.491ZM126.025 115.222L127.708 116.159L131.346 113.985L129.763 113.081C129.125 112.704 128.075 112.693 127.43 113.064L126.025 113.852C125.375 114.229 125.375 114.844 126.025 115.222ZM123.12 113.536L123.598 113.785L127.236 111.611L126.858 111.395C126.219 111.018 125.17 111.013 124.525 111.379L123.12 112.166C122.47 112.543 122.47 113.159 123.12 113.536ZM121.009 118.172L122.692 119.109L126.331 116.935L124.747 116.031C124.109 115.654 123.059 115.643 122.414 116.015L121.009 116.802C120.359 117.179 120.359 117.795 121.009 118.172ZM105.478 133.96L103.895 133.056C103.256 132.673 102.206 132.668 101.562 133.039L100.151 133.827C99.5009 134.204 99.5009 134.819 100.151 135.196L101.834 136.133L105.472 133.96H105.478ZM113.093 119.442L113.571 119.691L117.21 117.517L116.832 117.301C116.193 116.918 115.143 116.913 114.499 117.284L113.093 118.072C112.444 118.449 112.444 119.065 113.093 119.442ZM91.5353 138.945L90.13 139.732C89.48 140.11 89.48 140.725 90.13 141.102L91.8131 142.039L95.4514 139.866L93.8683 138.962C93.2295 138.585 92.1797 138.573 91.5353 138.945ZM119.726 130.322L118.143 129.418C117.504 129.041 116.454 129.03 115.81 129.401L114.404 130.189C113.754 130.566 113.754 131.181 114.404 131.558L116.087 132.496L119.726 130.322ZM110.494 131.009L108.911 130.106C108.272 129.728 107.222 129.717 106.578 130.089L105.172 130.876C104.522 131.253 104.522 131.869 105.172 132.246L106.855 133.183L110.494 131.009ZM100.467 136.915L98.8843 136.011C98.2455 135.634 97.1956 135.629 96.5513 135.995L95.1459 136.782C94.496 137.159 94.496 137.775 95.1459 138.152L96.829 139.089L100.467 136.915ZM135.263 114.534L136.946 115.471L140.584 113.297L139.001 112.393C138.362 112.016 137.312 112.005 136.668 112.377L135.263 113.164C134.613 113.541 134.613 114.157 135.263 114.534ZM121.626 121.233L120.22 122.02C119.57 122.397 119.57 123.013 120.22 123.39L121.903 124.327L125.542 122.153L123.964 121.249C123.325 120.872 122.276 120.861 121.631 121.233H121.626ZM116.61 124.183L115.204 124.97C114.554 125.348 114.554 125.963 115.204 126.34L116.887 127.277L120.526 125.104L118.943 124.2C118.304 123.823 117.254 123.811 116.61 124.183ZM111.594 127.133L110.188 127.921C109.538 128.298 109.538 128.913 110.188 129.29L111.871 130.228L115.51 128.054L113.927 127.15C113.288 126.773 112.238 126.762 111.594 127.133ZM126.908 121.371L130.547 119.198L128.963 118.294C128.325 117.917 127.275 117.906 126.63 118.277L125.225 119.065C124.575 119.442 124.575 120.057 125.225 120.434L126.908 121.371ZM109.388 134.509L111.072 135.446L114.71 133.272L113.127 132.363C112.488 131.985 111.438 131.98 110.794 132.346L109.388 133.133C108.738 133.51 108.738 134.126 109.388 134.503V134.509ZM88.8524 141.912C88.2136 141.535 87.1637 141.524 86.5193 141.895L85.114 142.683C84.4641 143.06 84.4641 143.675 85.114 144.052L86.7971 144.99L90.4355 142.816L88.8524 141.912ZM83.0032 137.154L83.4809 137.398L87.1193 135.224L86.7415 135.008C86.1027 134.625 85.0529 134.62 84.4085 134.991L83.0032 135.779C82.3533 136.156 82.3533 136.771 83.0032 137.148V137.154ZM84.6307 139.644C83.9919 139.267 82.9421 139.261 82.2977 139.627L80.8923 140.415C80.2424 140.792 80.2424 141.407 80.8923 141.784L82.5754 142.721L86.2138 140.548L84.6307 139.638V139.644ZM95.7458 141.202L94.3405 141.989C93.6906 142.367 93.6906 142.982 94.3405 143.359L96.0236 144.296L99.662 142.123L98.0789 141.219C97.4401 140.836 96.3902 140.83 95.7458 141.202ZM81.7256 137.958C81.0868 137.581 80.0369 137.575 79.3925 137.941L77.9872 138.729C77.3373 139.106 77.3373 139.721 77.9872 140.098L78.4649 140.348L82.1033 138.174L81.7256 137.958ZM90.7354 144.152L89.3301 144.94C88.6802 145.311 88.6802 145.932 89.3301 146.309L91.0132 147.247L94.6516 145.073L93.0684 144.169C92.4296 143.792 91.3798 143.781 90.7354 144.152ZM143.212 114.645C142.573 114.268 141.523 114.257 140.879 114.628L139.473 115.416C138.823 115.793 138.823 116.408 139.473 116.785L141.156 117.723L144.795 115.549L143.212 114.645ZM100.762 138.246L99.3565 139.034C98.7066 139.411 98.7066 140.026 99.3565 140.403L101.04 141.341L104.678 139.167L103.1 138.263C102.462 137.886 101.412 137.88 100.767 138.246H100.762ZM135.863 117.578L134.452 118.366C133.802 118.743 133.802 119.358 134.452 119.736L136.129 120.673L139.773 118.499L138.19 117.595C137.551 117.218 136.496 117.207 135.857 117.578H135.863ZM108.111 135.307C107.472 134.93 106.422 134.925 105.778 135.291L104.372 136.078C103.723 136.455 103.723 137.071 104.372 137.448L106.056 138.385L109.694 136.211L108.111 135.302V135.307ZM137.84 125.974L135.346 124.588L106.911 141.424L109.255 142.766C110.205 143.326 111.76 143.337 112.716 142.794L137.84 128.009C138.807 127.455 138.807 126.54 137.84 125.98V125.974ZM95.9347 132.923L97.6178 133.86L101.256 131.686L99.6731 130.782C99.0343 130.399 97.9844 130.394 97.3401 130.765L95.9347 131.553C95.2848 131.93 95.2848 132.546 95.9347 132.923ZM100.951 129.972L102.634 130.91L106.272 128.736L104.689 127.832C104.05 127.455 103 127.444 102.356 127.815L100.951 128.603C100.301 128.98 100.301 129.595 100.951 129.972ZM98.0455 128.287L98.5232 128.536L102.162 126.362L101.784 126.146C101.145 125.769 100.095 125.758 99.4509 126.129L98.0455 126.917C97.3956 127.294 97.3956 127.91 98.0455 128.287ZM103.062 125.336L103.539 125.586L107.178 123.412L106.8 123.196C106.161 122.819 105.111 122.808 104.467 123.179L103.062 123.967C102.412 124.344 102.412 124.959 103.062 125.336ZM105.967 127.022L107.65 127.959L111.288 125.786L109.705 124.882C109.066 124.499 108.016 124.494 107.372 124.865L105.967 125.653C105.317 126.03 105.317 126.645 105.967 127.022ZM108.077 122.386L108.555 122.636L112.194 120.462L111.816 120.246C111.177 119.869 110.127 119.858 109.483 120.229L108.077 121.017C107.428 121.394 107.428 122.009 108.077 122.386ZM110.983 124.072L112.666 125.009L116.304 122.835L114.721 121.932C114.082 121.554 113.032 121.543 112.388 121.915L110.983 122.702C110.333 123.079 110.333 123.695 110.983 124.072ZM88.0191 134.198L88.4968 134.448L92.1352 132.274L91.7575 132.058C91.1187 131.68 90.0689 131.669 89.4245 132.041L88.0191 132.828C87.3692 133.205 87.3692 133.821 88.0191 134.198ZM90.9243 135.884L92.6074 136.821L96.2458 134.647L94.6627 133.743C94.0239 133.366 92.974 133.355 92.3297 133.727L90.9243 134.514C90.2744 134.891 90.2744 135.507 90.9243 135.884ZM93.0351 131.248L93.5128 131.497L97.1512 129.324L96.7735 129.107C96.1347 128.73 95.0848 128.719 94.4405 129.091L93.0351 129.878C92.3852 130.255 92.3852 130.871 93.0351 131.248ZM85.9139 138.834L87.597 139.771L91.2354 137.597L89.6522 136.694C89.0134 136.316 87.958 136.305 87.3192 136.677L85.9139 137.464C85.264 137.841 85.264 138.457 85.9139 138.834Z" fill="#181F30"/>
<path d="M119.72 130.327L119.398 130.144L115.843 132.268L114.16 131.331C114.11 131.303 114.065 131.264 114.027 131.237C114.11 131.359 114.232 131.47 114.399 131.569L116.082 132.507L119.72 130.333V130.327Z" fill="#3E4657"/>
<path d="M121.653 124.1L119.97 123.163C119.92 123.135 119.876 123.096 119.837 123.063C119.92 123.185 120.042 123.301 120.209 123.395L121.892 124.333L125.531 122.159L125.208 121.976L121.653 124.1Z" fill="#3E4657"/>
<path d="M110.166 130.832L106.611 132.956L104.928 132.019C104.878 131.991 104.834 131.952 104.789 131.924C104.872 132.046 104.995 132.157 105.161 132.257L106.844 133.194L110.483 131.021L110.161 130.838L110.166 130.832Z" fill="#3E4657"/>
<path d="M105.15 133.788L101.595 135.912L99.9119 134.974C99.8619 134.947 99.8174 134.908 99.7786 134.88C99.8619 135.002 99.9841 135.113 100.151 135.213L101.834 136.15L105.472 133.976L105.15 133.793V133.788Z" fill="#3E4657"/>
<path d="M120.193 124.926L116.637 127.05L114.954 126.113C114.904 126.079 114.86 126.046 114.821 126.013C114.904 126.135 115.027 126.246 115.193 126.346L116.876 127.283L120.515 125.109L120.193 124.926Z" fill="#3E4657"/>
<path d="M124.736 127.377L124.414 127.194L120.859 129.318L119.176 128.381C119.126 128.353 119.082 128.314 119.037 128.287C119.12 128.409 119.243 128.519 119.409 128.619L121.092 129.556L124.731 127.383L124.736 127.377Z" fill="#3E4657"/>
<path d="M127.464 115.926L125.781 114.988C125.731 114.961 125.686 114.922 125.647 114.889C125.731 115.011 125.853 115.127 126.019 115.221L127.702 116.159L131.341 113.985L131.019 113.802L127.464 115.926Z" fill="#3E4657"/>
<path d="M95.4459 139.871L95.1237 139.688L91.5686 141.812L89.8855 140.875C89.8355 140.847 89.7911 140.808 89.7522 140.78C89.8355 140.902 89.9577 141.013 90.1244 141.113L91.8075 142.05L95.4459 139.877V139.871Z" fill="#3E4657"/>
<path d="M114.704 133.283L114.382 133.1L110.827 135.224L109.144 134.287C109.094 134.259 109.05 134.22 109.011 134.187C109.094 134.309 109.216 134.425 109.383 134.52L111.066 135.457L114.704 133.283Z" fill="#3E4657"/>
<path d="M91.2241 137.609L90.9019 137.426L87.3469 139.544L85.6638 138.607C85.6138 138.573 85.5693 138.54 85.5249 138.507C85.6082 138.629 85.7304 138.74 85.8971 138.84L87.5802 139.777L91.2186 137.603L91.2241 137.609Z" fill="#3E4657"/>
<path d="M110.977 124.089L112.66 125.026L116.299 122.852L115.976 122.669L112.421 124.793L110.738 123.856C110.688 123.822 110.644 123.789 110.599 123.756C110.683 123.878 110.805 123.989 110.972 124.089H110.977Z" fill="#3E4657"/>
<path d="M95.9347 132.945L97.6178 133.882L101.256 131.708L100.934 131.525L97.3789 133.649L95.6958 132.712C95.6458 132.684 95.6014 132.645 95.5625 132.618C95.6458 132.74 95.768 132.851 95.9347 132.95V132.945Z" fill="#3E4657"/>
<path d="M100.951 129.989L102.634 130.926L106.272 128.752L105.95 128.569L102.395 130.693L100.712 129.756C100.662 129.728 100.617 129.69 100.578 129.662C100.662 129.784 100.784 129.895 100.951 129.995V129.989Z" fill="#3E4657"/>
<path d="M115.176 127.882L111.621 130.006L109.938 129.069C109.888 129.041 109.844 129.002 109.805 128.974C109.888 129.096 110.01 129.207 110.177 129.307L111.86 130.244L115.499 128.07L115.176 127.887V127.882Z" fill="#3E4657"/>
<path d="M100.134 136.738L96.5791 138.862L94.896 137.925C94.846 137.897 94.8016 137.858 94.7627 137.83C94.846 137.952 94.9682 138.063 95.1349 138.163L96.818 139.1L100.456 136.926L100.134 136.743V136.738Z" fill="#3E4657"/>
<path d="M131.68 118.194L129.997 117.257C129.947 117.229 129.902 117.19 129.863 117.157C129.947 117.279 130.069 117.395 130.235 117.489L131.919 118.427L135.557 116.253L135.235 116.07L131.68 118.194Z" fill="#3E4657"/>
<path d="M90.9188 135.895L92.6019 136.832L96.2403 134.658L95.9181 134.475L92.363 136.599L90.6799 135.662C90.63 135.634 90.5855 135.596 90.5466 135.562C90.63 135.684 90.7522 135.801 90.9188 135.895Z" fill="#3E4657"/>
<path d="M121.004 118.183L122.687 119.12L126.325 116.946L126.003 116.763L122.448 118.887L120.765 117.95C120.715 117.917 120.67 117.883 120.631 117.85C120.715 117.972 120.837 118.089 121.004 118.183Z" fill="#3E4657"/>
<path d="M126.669 121.144L124.986 120.207C124.936 120.179 124.892 120.14 124.847 120.113C124.931 120.235 125.053 120.345 125.22 120.445L126.903 121.382L130.541 119.209L130.219 119.026L126.664 121.15L126.669 121.144Z" fill="#3E4657"/>
<path d="M130.886 123.407L129.208 122.469C129.158 122.436 129.114 122.403 129.069 122.37C129.152 122.492 129.275 122.603 129.441 122.702L131.119 123.64L134.757 121.466L134.435 121.283L130.88 123.407H130.886Z" fill="#3E4657"/>
<path d="M147.816 121.932L145.978 120.878C145.233 120.434 144.011 120.429 143.261 120.856L139.129 123.224C138.368 123.662 138.368 124.377 139.129 124.821L141.084 125.908L147.811 121.926L147.816 121.932Z" fill="#181F30"/>
<path d="M140.812 125.641L138.857 124.554C138.796 124.521 138.751 124.482 138.696 124.444C138.79 124.582 138.934 124.715 139.129 124.832L141.084 125.919L147.811 121.937L147.433 121.721L140.806 125.641H140.812Z" fill="#3E4657"/>
<path d="M108.622 144.79L106.783 143.736C106.039 143.292 104.817 143.287 104.067 143.714L99.934 146.082C99.173 146.52 99.173 147.235 99.934 147.679L101.889 148.766L108.616 144.784L108.622 144.79Z" fill="#181F30"/>
<path d="M101.617 148.494L99.6621 147.407C99.601 147.374 99.5565 147.335 99.501 147.296C99.5954 147.435 99.7398 147.568 99.9342 147.684L101.89 148.771L108.616 144.79L108.239 144.573L101.612 148.494H101.617Z" fill="#3E4657"/>
<path d="M115.993 121.133L117.676 122.07L121.315 119.896L120.992 119.713L117.437 121.837L115.754 120.9C115.704 120.872 115.66 120.839 115.621 120.806C115.704 120.928 115.826 121.039 115.993 121.139V121.133Z" fill="#3E4657"/>
<path d="M105.961 127.039L107.644 127.976L111.283 125.802L110.96 125.619L107.405 127.743L105.722 126.806C105.672 126.778 105.628 126.739 105.589 126.706C105.672 126.828 105.794 126.939 105.961 127.039Z" fill="#3E4657"/>
<path d="M129.747 124.427L129.424 124.244L125.869 126.368L124.186 125.431C124.136 125.397 124.092 125.364 124.047 125.331C124.131 125.453 124.253 125.564 124.42 125.664L126.103 126.601L129.741 124.427H129.747Z" fill="#3E4657"/>
<path d="M90.7742 147.03L89.0911 146.093C89.0411 146.06 88.9966 146.026 88.9578 145.993C89.0411 146.115 89.1633 146.232 89.3299 146.326L91.013 147.263L94.6514 145.089L94.3292 144.906L90.7742 147.03Z" fill="#3E4657"/>
<path d="M90.1078 142.644L86.5527 144.768L84.8696 143.831C84.8196 143.803 84.7752 143.764 84.7363 143.736C84.8196 143.858 84.9419 143.969 85.1085 144.069L86.7916 145.006L90.43 142.832L90.1078 142.649V142.644Z" fill="#3E4657"/>
<path d="M81.7811 138.002L78.226 140.126L77.7483 139.877C77.6983 139.849 77.6539 139.81 77.615 139.782C77.6983 139.904 77.8205 140.015 77.9872 140.115L78.4649 140.365L82.1033 138.191L81.7811 138.002Z" fill="#3E4657"/>
<path d="M83.2419 137.176L82.7642 136.932C82.7142 136.899 82.6697 136.865 82.6309 136.832C82.7142 136.954 82.8364 137.071 83.003 137.165L83.4807 137.409L87.1191 135.235L86.797 135.052L83.2419 137.176Z" fill="#3E4657"/>
<path d="M95.7847 144.074L94.1016 143.137C94.0516 143.11 94.0071 143.071 93.9683 143.043C94.0516 143.165 94.1738 143.281 94.3404 143.376L96.0235 144.313L99.6619 142.139L99.3397 141.956L95.7847 144.074Z" fill="#3E4657"/>
<path d="M85.8917 140.381L82.3367 142.505L80.6536 141.568C80.6036 141.54 80.5591 141.507 80.5203 141.474C80.6036 141.596 80.7258 141.706 80.8924 141.806L82.5755 142.743L86.2139 140.57L85.8917 140.387V140.381Z" fill="#3E4657"/>
<path d="M135.901 120.456L134.218 119.519C134.168 119.492 134.124 119.453 134.085 119.425C134.168 119.547 134.29 119.658 134.457 119.758L136.135 120.695L139.779 118.521L139.456 118.338L135.901 120.462V120.456Z" fill="#3E4657"/>
<path d="M136.696 115.238L135.013 114.301C134.963 114.273 134.918 114.235 134.879 114.207C134.963 114.329 135.085 114.44 135.252 114.54L136.935 115.477L140.573 113.303L140.251 113.12L136.696 115.244V115.238Z" fill="#3E4657"/>
<path d="M100.801 141.124L99.1177 140.187C99.0677 140.159 99.0233 140.121 98.9844 140.093C99.0677 140.215 99.1899 140.331 99.3565 140.426L101.04 141.363L104.678 139.189L104.356 139.006L100.801 141.13V141.124Z" fill="#3E4657"/>
<path d="M109.366 136.05L105.811 138.174L104.128 137.237C104.078 137.209 104.034 137.17 103.995 137.143C104.078 137.265 104.2 137.381 104.367 137.475L106.05 138.413L109.688 136.239L109.366 136.056V136.05Z" fill="#3E4657"/>
<path d="M138.09 126.174C138.512 126.706 138.356 127.355 137.601 127.787L112.477 142.572C111.527 143.121 109.966 143.11 109.016 142.544L106.994 141.385L106.905 141.435L109.249 142.777C110.199 143.337 111.755 143.348 112.71 142.805L137.834 128.02C138.706 127.521 138.784 126.728 138.084 126.168L138.09 126.174Z" fill="#3E4657"/>
<path d="M144.467 115.382L140.912 117.506L139.229 116.569C139.179 116.541 139.134 116.503 139.09 116.469C139.173 116.591 139.295 116.708 139.462 116.802L141.145 117.739L144.784 115.565L144.461 115.382H144.467Z" fill="#3E4657"/>
<path d="M118.343 116.508L117.865 116.258C117.815 116.231 117.771 116.192 117.726 116.164C117.809 116.286 117.932 116.397 118.098 116.497L118.576 116.746L122.214 114.573L121.892 114.39L118.337 116.514L118.343 116.508Z" fill="#3E4657"/>
<path d="M113.327 119.458L112.849 119.209C112.799 119.181 112.755 119.142 112.71 119.114C112.794 119.236 112.916 119.347 113.082 119.447L113.56 119.697L117.198 117.523L116.876 117.334L113.321 119.458H113.327Z" fill="#3E4657"/>
<path d="M123.353 113.558L122.875 113.308C122.825 113.281 122.781 113.242 122.737 113.214C122.82 113.336 122.942 113.447 123.109 113.547L123.586 113.796L127.225 111.622L126.903 111.439L123.348 113.563L123.353 113.558Z" fill="#3E4657"/>
<path d="M128.369 110.602L127.891 110.353C127.841 110.319 127.797 110.286 127.758 110.253C127.841 110.375 127.964 110.486 128.13 110.585L128.608 110.835L132.246 108.661L131.924 108.473L128.369 110.597V110.602Z" fill="#3E4657"/>
<path d="M88.258 134.22L87.7803 133.971C87.7303 133.943 87.6859 133.904 87.647 133.876C87.7303 133.998 87.8525 134.109 88.0191 134.209L88.4969 134.459L92.1352 132.285L91.8131 132.102L88.258 134.226V134.22Z" fill="#3E4657"/>
<path d="M132.48 112.975L130.802 112.038C130.752 112.005 130.708 111.972 130.663 111.938C130.747 112.06 130.869 112.177 131.035 112.271L132.713 113.208L136.357 111.035L136.035 110.852L132.48 112.975Z" fill="#3E4657"/>
<path d="M93.2685 131.27L92.7908 131.021C92.7408 130.987 92.6964 130.954 92.6575 130.921C92.7408 131.043 92.863 131.159 93.0296 131.253L93.5074 131.503L97.1457 129.329L96.8236 129.141L93.2685 131.265V131.27Z" fill="#3E4657"/>
<path d="M98.2844 128.32L97.8067 128.07C97.7567 128.043 97.7122 128.004 97.6733 127.976C97.7567 128.098 97.8789 128.209 98.0455 128.309L98.5232 128.558L102.162 126.384L101.839 126.201L98.2844 128.325V128.32Z" fill="#3E4657"/>
<path d="M108.311 122.414L107.833 122.164C107.783 122.137 107.739 122.098 107.694 122.07C107.777 122.192 107.9 122.309 108.066 122.403L108.544 122.652L112.182 120.479L111.86 120.296L108.305 122.42L108.311 122.414Z" fill="#3E4657"/>
<path d="M103.3 125.364L102.823 125.115C102.773 125.087 102.728 125.048 102.689 125.02C102.773 125.142 102.895 125.253 103.061 125.353L103.539 125.603L107.177 123.429L106.855 123.246L103.3 125.37V125.364Z" fill="#3E4657"/>
<path d="M111.672 102.483L89.2746 116.07L88.8914 115.82L91.9298 93.5331L107.367 84.4275L111.672 102.483Z" fill="#B2BEE9"/>
<path d="M112.066 102.256L89.2747 115.66L92.3242 93.3003L107.755 84.2002L112.066 102.256Z" fill="#CCDAFF"/>
<path d="M121.048 109.149L100.718 121.177C100.062 121.56 99.2566 121.571 98.5956 121.205L89.2747 116.07V115.654L112.066 102.594L121.031 107.535C121.659 107.885 121.676 108.783 121.054 109.144L121.048 109.149Z" fill="#A5BEF2"/>
<path d="M121.048 108.733L100.718 120.761C100.062 121.144 99.2566 121.155 98.5956 120.789L89.2747 115.654L112.066 102.178L121.031 107.119C121.659 107.469 121.715 108.295 121.054 108.728L121.048 108.733Z" fill="white"/>
<path d="M141.078 70.9078C141.078 74.6898 138.773 79.1151 135.929 80.7843L58.8231 126.091C55.9791 127.76 53.6738 126.046 53.6738 122.264V69.8042C53.6738 66.0222 55.9791 61.597 58.8231 59.9278L135.929 14.6159C138.773 12.9467 141.078 14.6602 141.078 18.4422V70.9022V70.9078Z" fill="white"/>
<path d="M133.58 14.6159L56.4735 59.9223C53.6295 61.5915 51.3242 66.0167 51.3242 69.7987V122.259V122.27C51.3242 123.312 51.8964 124.266 52.8018 124.782L55.2681 126.179L138.645 72.1112C138.695 71.7064 138.723 71.3016 138.723 70.9023L140.629 17.4441C140.629 13.6565 136.418 12.9412 133.574 14.6103L133.58 14.6159Z" fill="white"/>
<path d="M135.929 14.616L58.8231 59.9223C55.9791 61.5915 53.6738 66.0168 53.6738 69.7988V122.259C53.6738 122.686 53.7072 123.08 53.7627 123.446L140.995 72.1113C141.045 71.7064 141.073 71.3016 141.073 70.9023V18.4423C141.073 14.6548 138.768 12.9468 135.924 14.616H135.929Z" fill="#181F30"/>
<path d="M138.007 14.4218C139.601 14.4218 140.634 16.0023 140.634 18.4423V70.9023C140.634 74.5401 138.423 78.7991 135.707 80.3961L58.5954 125.703C57.9399 126.091 57.3178 126.285 56.7456 126.285C55.1514 126.285 54.1182 124.704 54.1182 122.259V69.7988C54.1182 66.161 56.329 61.902 59.0453 60.305L136.157 14.9986C136.812 14.6159 137.434 14.4218 138.007 14.4218ZM138.007 13.9782C137.373 13.9782 136.668 14.1834 135.929 14.6215L58.8231 59.9223C55.9791 61.5915 53.6738 66.0168 53.6738 69.7988V122.259C53.6738 125.059 54.9348 126.728 56.7456 126.728C57.3789 126.728 58.0843 126.523 58.8231 126.091L135.929 80.7843C138.773 79.1151 141.078 74.6899 141.078 70.9079V18.4423C141.078 15.6418 139.812 13.9727 138.007 13.9727V13.9782Z" fill="#A3A7AF"/>
<path d="M135.352 69.5326L60.3452 113.375V67.1092L135.352 23.2668V69.5326Z" fill="#1D4386"/>
<path d="M109.677 38.2727L77.0818 57.3213L60.3452 101.979V113.375L85.5195 98.6572L109.677 38.2727Z" fill="white" fill-opacity="0.03"/>
<path d="M135.352 49.5576V42.0879L120.076 78.4605L123.992 76.1703L135.352 49.5576Z" fill="#1D4386"/>
<path d="M131.558 25.4849L120.704 31.8289L95.6182 92.7568L104.884 87.3444L131.558 25.4849Z" fill="#1D4386"/>
<path d="M48.2134 135.324C49.6798 134.47 52.074 134.481 53.5293 135.34L90.7353 157.311C91.4074 157.705 91.7685 157.6 91.8129 158.121C91.8629 158.72 91.4963 159.951 90.7297 160.406L68.9605 173.316C67.5052 174.175 65.1222 174.192 63.6668 173.355L26.1109 151.322C25.2499 150.823 24.9721 150.003 24.9999 149.038C25.0166 148.561 25.4943 148.572 26.1109 148.211L48.2134 135.324Z" fill="#C2C2C0"/>
<path d="M48.2136 134.592C49.6801 133.738 52.0742 133.749 53.5295 134.608L90.7355 156.58C92.1742 157.428 92.1687 158.82 90.7244 159.674L68.9552 172.584C67.4998 173.443 65.1168 173.46 63.6615 172.623L26.1111 150.585C24.6335 149.731 24.6335 148.333 26.1111 147.474L48.2136 134.586V134.592Z" fill="white"/>
<path d="M48.5799 137.115C49.752 136.433 51.6628 136.439 52.8293 137.132L82.5641 154.689C83.714 155.365 83.7084 156.48 82.5586 157.162L65.161 167.476C64 168.164 62.0947 168.175 60.9282 167.504L30.9157 149.897C29.7325 149.215 29.7325 148.095 30.9157 147.413L48.5799 137.115Z" fill="#0F85C3"/>
<path d="M50.8409 139.71C51.5686 139.289 52.7573 139.289 53.485 139.721L71.9713 150.635C72.6879 151.056 72.6823 151.749 71.9713 152.171L61.1561 158.587C60.434 159.014 59.2508 159.025 58.5232 158.604L39.8646 147.657C39.1314 147.235 39.1314 146.537 39.8646 146.11L50.8464 139.71H50.8409Z" fill="#124F83"/>
<path d="M53.4849 139.721C52.7628 139.294 51.5741 139.289 50.8408 139.71L39.859 146.11C39.1258 146.537 39.1258 147.23 39.859 147.657L53.4793 139.716L53.4849 139.721Z" fill="#FE9C16"/>
<path d="M52.5683 144.285C52.1572 144.041 51.4851 144.041 51.074 144.285L44.8693 147.901C44.4527 148.139 44.4527 148.533 44.8693 148.772L52.5627 144.285H52.5683Z" fill="#CCD7CD"/>
<path d="M56.5734 146.343C56.1624 146.099 55.4902 146.099 55.0792 146.343L48.8745 149.958C48.4579 150.202 48.4579 150.59 48.8745 150.834L56.5679 146.348L56.5734 146.343Z" fill="#CCD7CD"/>
<path d="M58.4064 147.385C57.9954 147.141 57.3232 147.141 56.9122 147.385L50.7075 151.001C50.2909 151.245 50.2909 151.633 50.7075 151.871L58.4064 147.385Z" fill="#CCD7CD"/>
<path d="M56.5735 151.012C56.1624 150.768 55.4903 150.768 55.0792 151.012L53.5239 151.932C53.1073 152.171 53.1073 152.565 53.5239 152.803L56.5679 151.017L56.5735 151.012Z" fill="#CCD7CD"/>
<path d="M58.812 152.493C58.4009 152.249 57.7288 152.249 57.3177 152.493L55.7624 153.413C55.3458 153.657 55.3458 154.045 55.7624 154.289L58.8064 152.504L58.812 152.493Z" fill="#CCD7CD"/>
<path d="M64.6999 151.506C64.2889 151.262 63.6167 151.262 63.2057 151.506L61.6503 152.426C61.2337 152.67 61.2337 153.058 61.6503 153.297L64.6944 151.511L64.6999 151.506Z" fill="#CCD7CD"/>
<path d="M63.8391 154.461C63.428 154.217 62.7559 154.217 62.3449 154.461L60.7895 155.382C60.3729 155.626 60.3729 156.014 60.7895 156.258L63.8391 154.467V154.461Z" fill="#CCD7CD"/>
<path d="M50.3853 144.152C51.113 143.731 52.3017 143.731 53.0294 144.163L71.5157 155.077C72.2323 155.498 72.2267 156.191 71.5157 156.613L60.7006 163.029C59.9784 163.456 58.7953 163.467 58.0676 163.045L39.4091 152.099C38.6758 151.677 38.6758 150.979 39.4091 150.552L50.3909 144.152H50.3853Z" fill="#DA1F27"/>
<path d="M80.809 160.678C81.0645 160.528 81.4811 160.528 81.7366 160.678L82.5254 161.144C82.7753 161.293 82.7753 161.537 82.5254 161.681L75.1042 166.035C74.8487 166.184 74.4321 166.19 74.1765 166.04L73.3266 165.563C73.0711 165.414 73.0711 165.17 73.3266 165.02L80.809 160.672V160.678Z" fill="#BCBFBA"/>
<path d="M40.0535 140.01C40.2868 139.877 40.659 139.882 40.8923 140.015L41.2422 140.226C41.3978 140.315 41.3978 140.464 41.2422 140.559L39.5758 141.535C39.3203 141.684 39.0092 141.684 38.7481 141.54C38.3704 141.324 38.3704 140.975 38.7481 140.758L40.0535 140.01Z" fill="#BCBFBA"/>
<path d="M40.9312 140.365C40.9312 140.476 40.7368 140.564 40.498 140.564C40.2591 140.564 40.0647 140.476 40.0647 140.365C40.0647 140.254 40.2591 140.165 40.498 140.165C40.7368 140.165 40.9312 140.254 40.9312 140.365Z" fill="#8F959B"/>
<path d="M40.6756 140.365C40.6756 140.409 40.5978 140.448 40.4978 140.448C40.3978 140.448 40.3201 140.409 40.3201 140.365C40.3201 140.32 40.3978 140.281 40.4978 140.281C40.5978 140.281 40.6756 140.32 40.6756 140.365Z" fill="#676E6E"/>
<path d="M108.133 168.99C107.3 168.497 105.928 168.491 105.089 168.979L96.8566 173.737C96.0178 174.22 96.0178 175.018 96.8566 175.506L112.477 184.634C113.315 185.122 114.682 185.122 115.521 184.634L123.603 179.887C124.436 179.394 124.442 178.59 123.603 178.102L108.138 168.996L108.133 168.99Z" fill="#1D4386"/>
<path d="M108.133 168.829C107.3 168.336 105.928 168.33 105.089 168.818L96.8566 173.576C96.0178 174.059 96.0178 174.857 96.8566 175.345L112.477 184.473C113.315 184.961 114.682 184.961 115.521 184.473L123.603 179.726C124.436 179.233 124.442 178.429 123.603 177.941L108.138 168.835L108.133 168.829Z" fill="#124F83"/>
<path d="M115.621 182.344C115.054 182.76 114.049 182.815 113.365 182.466C112.682 182.116 112.588 181.501 113.154 181.085C113.721 180.669 114.726 180.614 115.41 180.963C116.093 181.312 116.187 181.928 115.621 182.344Z" fill="#303555"/>
<path d="M113.41 181.179C112.843 181.595 111.838 181.651 111.155 181.301C110.471 180.952 110.377 180.336 110.944 179.92C111.51 179.505 112.516 179.449 113.199 179.798C113.882 180.148 113.977 180.763 113.41 181.179Z" fill="white"/>
<path d="M105.317 168.708C105.239 168.741 105.161 168.78 105.083 168.824L103.422 169.783L121.964 180.68L123.592 179.726C123.675 179.676 123.742 179.627 123.808 179.577L105.317 168.708Z" fill="white"/>
<path d="M120.709 181.418L121.192 181.135L102.639 170.232L102.15 170.515L120.709 181.418Z" fill="white"/>
<path d="M102.617 176.366C102.55 176.366 102.484 176.349 102.434 176.321L98.6008 174.12C98.4452 174.031 98.4563 173.831 98.623 173.682C98.7952 173.526 99.0562 173.477 99.2173 173.565L103.05 175.767C103.206 175.856 103.195 176.055 103.028 176.205C102.917 176.305 102.761 176.366 102.622 176.366H102.617Z" fill="#1D4386"/>
<path d="M103.839 162.419C103.006 161.926 101.634 161.92 100.795 162.408L92.5628 167.166C91.724 167.648 91.7185 168.447 92.5628 168.935L108.183 178.063C109.022 178.551 110.388 178.551 111.227 178.063L119.309 173.316C120.148 172.822 120.148 172.018 119.309 171.53L103.845 162.425L103.839 162.419Z" fill="#C30B28"/>
<path d="M103.839 162.258C103.006 161.765 101.634 161.759 100.795 162.247L92.5628 167.005C91.724 167.488 91.7185 168.286 92.5628 168.774L108.183 177.902C109.022 178.39 110.388 178.39 111.227 177.902L119.309 173.155C120.148 172.661 120.148 171.857 119.309 171.369L103.845 162.264L103.839 162.258Z" fill="#FB2949"/>
<path d="M111.544 175.789C110.716 176.399 109.244 176.477 108.244 175.972C107.25 175.462 107.111 174.558 107.933 173.948C108.761 173.338 110.233 173.255 111.233 173.765C112.227 174.275 112.366 175.179 111.544 175.789Z" fill="white"/>
<path d="M101.028 162.131C100.95 162.164 100.873 162.203 100.795 162.247L99.134 163.206L117.676 174.103L119.303 173.149C119.387 173.1 119.453 173.05 119.52 173L101.028 162.131Z" fill="#3C0B1F"/>
<path d="M98.3288 169.789C98.2621 169.789 98.1955 169.772 98.1455 169.744L94.3127 167.543C94.1571 167.454 94.1682 167.255 94.3349 167.105C94.5071 166.95 94.7682 166.9 94.9292 166.988L98.762 169.19C98.9176 169.279 98.9065 169.478 98.7398 169.628C98.6287 169.728 98.4732 169.789 98.3343 169.789H98.3288Z" fill="#DA1F27"/>
<path d="M103 172.462C102.934 172.462 102.867 172.445 102.817 172.418L98.9841 170.216C98.8285 170.127 98.8396 169.928 99.0063 169.778C99.1785 169.623 99.4395 169.573 99.6006 169.661L103.433 171.863C103.589 171.952 103.578 172.151 103.411 172.301C103.3 172.401 103.145 172.462 103.006 172.462H103Z" fill="#DA1F27"/>
<path d="M141.701 150.385L141.012 150.585L131.513 145.045C130.869 144.673 129.819 144.673 129.18 145.05L105.983 158.57L105.339 158.31V159.369C105.344 159.607 105.506 159.851 105.811 160.034L115.365 165.702C116.004 166.079 117.048 166.084 117.687 165.718L141.206 152.071C141.539 151.882 141.701 151.627 141.689 151.378V150.391L141.701 150.385Z" fill="#9F9DA3"/>
<path d="M131.513 143.986C130.869 143.614 129.819 143.614 129.18 143.991L105.811 157.611C105.178 157.982 105.183 158.592 105.811 158.97L115.365 164.637C116.004 165.014 117.048 165.02 117.687 164.654L141.206 151.006C141.856 150.635 141.856 150.019 141.206 149.642L131.507 143.986H131.513Z" fill="white"/>
<path d="M130.963 145.139C130.43 144.829 129.563 144.834 129.03 145.145L109.172 156.712C108.649 157.023 108.649 157.528 109.172 157.838L117.076 162.524C117.604 162.835 118.47 162.84 118.998 162.535L138.979 150.945C139.517 150.635 139.517 150.13 138.979 149.814L130.958 145.134L130.963 145.139Z" fill="#031C38"/>
<path d="M109.733 160.533C109.733 160.872 110.333 161.149 111.071 161.149C111.81 161.149 112.41 160.872 112.41 160.533C112.41 160.195 111.81 159.918 111.071 159.918C110.333 159.918 109.733 160.195 109.733 160.533Z" fill="#BCB7C8"/>
<path d="M135.012 147.158C135.012 147.319 135.296 147.446 135.64 147.446C135.985 147.446 136.268 147.313 136.268 147.158C136.268 147.002 135.985 146.869 135.64 146.869C135.296 146.869 135.012 146.997 135.012 147.158Z" fill="#BCB7C8"/>
<path d="M135.274 147.158C135.274 147.252 135.44 147.33 135.64 147.33C135.84 147.33 136.007 147.252 136.007 147.158C136.007 147.063 135.84 146.986 135.64 146.986C135.44 146.986 135.274 147.063 135.274 147.158Z" fill="#8E9DA7"/>
<path d="M135.462 147.158C135.462 147.202 135.54 147.241 135.635 147.241C135.729 147.241 135.807 147.202 135.807 147.158C135.807 147.113 135.729 147.074 135.635 147.074C135.54 147.074 135.462 147.113 135.462 147.158Z" fill="#76757B"/>
<path d="M170.686 44.7109L157.937 51.8757L139.518 63.0941C138.096 63.8816 137.112 66.255 137.318 68.39L140.706 101.308C140.729 101.546 140.767 101.768 140.817 101.979L175.091 81.6437C175.091 81.4274 175.09 81.2111 175.068 80.9949L172.713 55.5856L171.952 49.2693L171.585 45.5095C171.524 44.8274 171.119 44.4669 170.68 44.7054L170.686 44.7109Z" fill="#FE6F00"/>
<path d="M171.958 49.2695L171.691 46.5854L144.411 63.0222C143.006 63.8706 141.978 66.1055 142.112 68.0242L144.061 95.4132C144.078 95.6295 144.106 95.8291 144.15 96.0121L174.746 77.5457L172.713 55.5857L171.952 49.2695H171.958Z" fill="#FE5800"/>
<path d="M179.151 43.3745L146.761 62.4287C145.295 63.2883 144.106 65.5674 144.106 67.5194V95.4075C144.106 95.6294 144.123 95.829 144.15 96.0176L181.762 73.8579C181.784 73.6472 181.801 73.442 181.801 73.2368V45.3487C181.801 43.3967 180.612 42.515 179.146 43.3745H179.151Z" fill="#F1F1F5"/>
<path d="M183.867 48.92L159.27 63.3936C158.093 64.0868 157.137 65.9168 157.137 67.4862V89.9065C157.137 90.0839 157.149 90.2447 157.176 90.4L185.972 73.4254C185.995 73.259 186.006 73.0871 186.006 72.9263V50.506C186.006 48.9366 185.05 48.2268 183.873 48.92H183.867Z" fill="#0F7DC3"/>
<path d="M176.957 46.2694L163.937 53.9165C163.459 54.1994 163.07 54.948 163.07 55.5857V57.6542L143.378 69.2442C141.934 70.0926 140.762 72.3386 140.762 74.2628V101.757C140.762 101.973 140.779 102.173 140.806 102.362L177.785 80.5736C177.807 80.3684 177.824 80.1632 177.824 79.958V46.9126C177.824 46.2749 177.435 45.9865 176.957 46.2638V46.2694Z" fill="#2B6FB7"/>
<path d="M157.532 83.4903L144.956 90.8436V75.6546L157.532 68.3069V83.4903Z" fill="#2B6FB7"/>
<path d="M157.204 90.7937C156.915 90.7937 156.671 90.6218 156.582 90.3112C156.449 89.8454 156.715 89.2465 157.176 88.9692L166.653 83.2685C167.114 82.9912 167.597 83.1465 167.736 83.6123C167.869 84.0781 167.603 84.6826 167.142 84.9543L157.665 90.655C157.51 90.7493 157.354 90.7937 157.204 90.7937Z" fill="#FEA516"/>
<path d="M179.351 90.4443V87.4498C179.351 85.7085 178.734 84.3499 177.651 83.7177C176.763 83.1964 175.696 83.2297 174.652 83.812L173.146 84.5772C172.608 84.849 172.396 85.5089 172.669 86.0412C172.941 86.5791 173.602 86.7899 174.135 86.5181L175.663 85.7418C175.663 85.7418 175.69 85.7307 175.702 85.7196C175.946 85.581 176.296 85.4479 176.551 85.5976C176.835 85.764 177.168 86.3462 177.168 87.4442V90.461C177.168 90.461 177.168 90.4942 177.168 90.5109C177.196 91.1874 177.029 92.7235 176.324 93.1505L173.085 95.0471C172.563 95.3521 172.391 96.0231 172.696 96.5388C172.902 96.8826 173.263 97.0767 173.641 97.0767C173.83 97.0767 174.018 97.0268 174.191 96.927L177.44 95.0193C179.407 93.8271 179.362 90.8935 179.345 90.4332L179.351 90.4443Z" fill="#A7152E"/>
<path d="M153.455 103.021C153.455 106.46 159.493 109.255 166.936 109.255C174.379 109.255 180.418 106.465 180.418 103.021C180.418 99.5777 174.379 96.7883 166.936 96.7883C159.493 96.7883 153.455 99.5777 153.455 103.021Z" fill="#B4C7E1"/>
<path d="M153.455 102.184C153.455 105.622 159.493 108.417 166.936 108.417C174.379 108.417 180.418 105.628 180.418 102.184C180.418 98.7403 174.379 95.9509 166.936 95.9509C159.493 95.9509 153.455 98.7403 153.455 102.184Z" fill="white"/>
<path d="M157.926 101.258C157.926 103.56 161.965 105.423 166.942 105.423C171.919 105.423 175.957 103.554 175.957 101.258C175.957 98.9623 171.919 97.0935 166.942 97.0935C161.965 97.0935 157.926 98.9568 157.926 101.258Z" fill="#CCDFFF"/>
<path d="M168.852 81.117L165.103 80.9119H161.703L158.371 81.6217V100.925C158.371 103.11 162.209 104.885 166.942 104.885C171.674 104.885 175.513 103.11 175.513 100.925V81.6217L168.852 81.117Z" fill="#DA1F27"/>
<path d="M158.371 81.6216C158.371 83.8065 162.209 85.581 166.942 85.581C171.674 85.581 175.513 83.8065 175.513 81.6216C175.513 79.4367 171.674 77.6621 166.942 77.6621C162.209 77.6621 158.371 79.4367 158.371 81.6216Z" fill="#FF596D"/>
<path d="M166.942 78.394C163.087 78.394 159.959 79.8414 159.959 81.6215C159.959 83.4016 163.087 84.849 166.942 84.849C170.797 84.849 173.924 83.4016 173.924 81.6215C173.924 79.8414 170.797 78.394 166.942 78.394Z" fill="#CE1830"/>
<mask id="mask0_2187_4154" style="mask-type:luminance" maskUnits="userSpaceOnUse" x="159" y="78" width="15" height="7">
<path d="M166.942 78.394C163.087 78.394 159.959 79.8414 159.959 81.6215C159.959 83.4016 163.087 84.849 166.942 84.849C170.797 84.849 173.924 83.4016 173.924 81.6215C173.924 79.8414 170.797 78.394 166.942 78.394Z" fill="white"/>
</mask>
<g mask="url(#mask0_2187_4154)">
<path d="M159.959 84.1225C159.959 85.9026 163.087 87.3499 166.942 87.3499C170.797 87.3499 173.924 85.9026 173.924 84.1225C173.924 82.3424 170.797 80.895 166.942 80.895C163.087 80.895 159.959 82.3424 159.959 84.1225Z" fill="#4B1512"/>
<path d="M161.642 84.1225C161.642 85.4756 164.014 86.568 166.936 86.568C169.858 86.568 172.23 85.47 172.23 84.1225C172.23 82.7749 169.858 81.6714 166.936 81.6714C164.014 81.6714 161.642 82.7694 161.642 84.1225Z" fill="#2E0512"/>
<path d="M164.303 84.1226C164.303 84.7936 165.481 85.3426 166.942 85.3426C168.402 85.3426 169.58 84.7991 169.58 84.1226C169.58 83.446 168.402 82.9026 166.942 82.9026C165.481 82.9026 164.303 83.446 164.303 84.1226Z" fill="#4B1512"/>
</g>
<path d="M185.244 137.198L158.581 153.341C158.009 153.702 157.271 153.713 156.676 153.38L135.557 141.402C134.385 140.736 134.418 139.161 135.607 138.496L162.353 123.49C162.886 123.19 163.57 123.202 164.125 123.518L185.094 135.357C185.844 135.779 185.922 136.777 185.244 137.204V137.198Z" fill="#8B8F9B"/>
<path d="M185.206 136.843L158.559 152.953C157.987 153.313 157.248 153.325 156.654 152.986L135.546 141.019C134.374 140.354 134.407 138.784 135.596 138.119L162.326 123.146C162.859 122.847 163.542 122.858 164.097 123.174L185.056 135.002C185.8 135.424 185.883 136.422 185.206 136.849V136.843Z" fill="#E1D9E6"/>
<path d="M155.815 130.095L149.7 133.566C149.572 133.638 149.411 133.638 149.283 133.566L144.684 130.96C144.428 130.816 144.428 130.477 144.684 130.339L150.694 127.006C150.822 126.934 150.977 126.939 151.105 127.006L155.81 129.673C155.982 129.773 155.988 129.995 155.821 130.089L155.815 130.095Z" fill="#FF277D"/>
<path d="M138.712 142.816L168.469 125.719C168.469 125.719 168.503 125.692 168.525 125.68L164.098 123.174C163.542 122.858 162.859 122.847 162.326 123.146L135.596 138.119C134.407 138.784 134.379 140.359 135.546 141.019L138.707 142.81L138.712 142.816Z" fill="#303555"/>
<path d="M155.76 152.482L184.939 134.936L181.128 132.773L151.677 150.163L155.76 152.482Z" fill="#303555"/>
<path d="M166.309 131.295L166.119 131.505C166.051 131.58 166.057 131.696 166.133 131.763L167.734 133.203C167.809 133.271 167.925 133.265 167.993 133.19L168.182 132.98C168.25 132.905 168.244 132.789 168.169 132.721L166.568 131.281C166.492 131.214 166.376 131.22 166.309 131.295Z" fill="#303555"/>
<path d="M164.759 132.501L164.792 132.535L166.986 132.706C167.358 132.734 167.669 132.424 167.641 132.052L167.469 129.862L167.436 129.828L164.759 132.501Z" fill="#A9B0C3"/>
<path d="M164.459 131.442C165.103 130.832 165.753 130.189 166.542 129.767C166.742 129.662 166.947 129.59 167.158 129.546L149.216 111.634L148.1 112.593L147.483 113.148L146.95 113.68L146.539 114.312L164.131 131.88C164.22 131.719 164.325 131.575 164.459 131.448V131.442Z" fill="#F1F1F5"/>
<path d="M164.431 126.823L161.87 129.612L164.886 132.623C164.886 132.623 164.892 132.629 164.897 132.634C165.242 132.978 166.12 132.657 166.858 131.919C167.597 131.181 167.919 130.305 167.575 129.961C167.575 129.961 167.569 129.956 167.564 129.95L164.431 126.817V126.823Z" fill="#F1F1F5"/>
<path d="M149.405 111.822L146.844 114.611L149.861 117.623C149.861 117.623 149.866 117.628 149.872 117.634C150.216 117.978 151.066 117.634 151.81 116.891C152.549 116.153 152.894 115.299 152.555 114.955C152.555 114.955 152.549 114.95 152.544 114.944L149.411 111.811L149.405 111.822Z" fill="#A7C5F5"/>
<path d="M149.316 111.739L146.756 114.528L149.772 117.539C149.772 117.539 149.777 117.545 149.783 117.551C150.127 117.894 151.005 117.573 151.744 116.835C152.483 116.098 152.805 115.221 152.46 114.878C152.46 114.878 152.455 114.872 152.449 114.867L149.316 111.733V111.739Z" fill="#303555"/>
<path d="M149.1 111.517L149.089 111.817C149.055 111.817 149.016 111.822 148.983 111.828L148.094 112.588L147.478 113.142L146.945 113.675L146.756 113.968C146.745 114.024 146.733 114.074 146.728 114.129C146.611 114.24 146.4 114.168 146.4 114.168L146.85 114.617C146.85 114.617 146.856 114.623 146.861 114.628C147.206 114.972 148.083 114.651 148.822 113.913C149.561 113.175 149.883 112.299 149.544 111.955C149.544 111.955 149.539 111.95 149.533 111.944L149.111 111.523L149.1 111.517Z" fill="#101C22"/>
<path d="M146.422 114.196C146.767 114.54 147.644 114.218 148.383 113.48C149.122 112.743 149.444 111.867 149.1 111.523C148.755 111.179 147.883 111.501 147.139 112.244C146.4 112.981 146.078 113.857 146.417 114.201L146.422 114.196Z" fill="#303555"/>
<path d="M148.316 111.506L148.305 111.717C148.305 111.717 148.255 111.717 148.228 111.722L147.594 112.266L147.155 112.66L146.778 113.037L146.644 113.247C146.633 113.286 146.628 113.325 146.622 113.364C146.539 113.441 146.389 113.392 146.389 113.392L146.711 113.713C146.711 113.713 146.711 113.713 146.717 113.719C146.961 113.963 147.583 113.735 148.111 113.209C148.639 112.682 148.866 112.061 148.622 111.817C148.622 111.817 148.622 111.817 148.616 111.811L148.316 111.512V111.506Z" fill="#101C22"/>
<path d="M146.405 113.414C146.65 113.658 147.272 113.43 147.8 112.904C148.327 112.377 148.555 111.756 148.311 111.512C148.066 111.268 147.439 111.495 146.917 112.022C146.389 112.549 146.161 113.17 146.405 113.414Z" fill="#303555"/>
</g>
</g>
<defs>
<clipPath id="clip0_2187_4154">
<rect width="232" height="220" fill="white"/>
</clipPath>
<clipPath id="clip1_2187_4154">
<rect width="161" height="180" fill="white" transform="translate(25 5)"/>
</clipPath>
</defs>
</svg>
