<svg width="159" height="233" viewBox="0 0 159 233" fill="none" xmlns="http://www.w3.org/2000/svg">
<g filter="url(#filter0_d_150_2)">
<path d="M124.881 2.16794H35.8385C35.2451 2.16794 34.7822 2.68171 34.8439 3.2719L54.2215 188.657C54.2337 188.774 54.2252 188.892 54.1964 189.006L49.1346 209.045C48.975 209.676 49.4525 210.29 50.1041 210.29H139.095C139.552 210.29 139.952 209.979 140.064 209.535L145.25 189.006C145.278 188.892 145.287 188.774 145.275 188.657L125.875 3.06399C125.822 2.55472 125.393 2.16794 124.881 2.16794Z" fill="#D8D5F0" stroke="#D8D5F0"/>
<path d="M27.085 6.93334L35.2134 1.76072C36.4515 0.972862 37.0705 0.578933 37.5745 0.826396C38.0785 1.07386 38.1453 1.80456 38.2789 3.26595L55.2871 189.294C55.3054 189.493 55.3145 189.593 55.3038 189.692C55.2932 189.791 55.263 189.887 55.2026 190.078L49.2613 208.892C49.0485 209.566 48.9421 209.903 48.6782 210.096C48.4143 210.29 48.0609 210.29 47.3542 210.29H36.5099C35.6622 210.29 35.2383 210.29 34.954 210.036C34.6696 209.783 34.6208 209.362 34.5232 208.52L26.1005 135.874C26.0786 135.685 26.0677 135.591 26.0745 135.497C26.0814 135.403 26.1058 135.312 26.1547 135.128L26.1547 135.128L34.6369 103.32C34.6825 103.149 34.7053 103.063 34.7128 102.976C34.7203 102.888 34.7123 102.8 34.6962 102.623L26.167 8.80173C26.1133 8.2107 26.0864 7.91518 26.2102 7.66322C26.334 7.41127 26.5843 7.25196 27.085 6.93334Z" fill="#8684AB" stroke="#8684AB"/>
<path d="M118.346 15.7198L50.8738 14.4764C49.6651 14.4542 48.7131 15.501 48.8498 16.7022L57.7239 94.7103C57.8372 95.7069 58.6713 96.4654 59.6742 96.4839L126.116 97.7082C127.314 97.7303 128.262 96.7008 128.142 95.5084L120.299 17.5193C120.198 16.5114 119.359 15.7384 118.346 15.7198Z" fill="white" stroke="black" stroke-width="2"/>
<g filter="url(#filter1_d_150_2)">
<path d="M87.9709 135.254L85.4854 111.642C85.4233 111.051 85.8862 110.537 86.4799 110.537H106.037C106.549 110.537 106.978 110.923 107.032 111.432L109.517 135.044C109.579 135.635 109.116 136.149 108.523 136.149H88.9654C88.4537 136.149 88.0245 135.763 87.9709 135.254Z" fill="#3B3A59"/>
<path d="M87.9709 135.254L85.4854 111.642C85.4233 111.051 85.8862 110.537 86.4799 110.537H106.037C106.549 110.537 106.978 110.923 107.032 111.432L109.517 135.044C109.579 135.635 109.116 136.149 108.523 136.149H88.9654C88.4537 136.149 88.0245 135.763 87.9709 135.254Z" stroke="#3B3A59"/>
</g>
<g filter="url(#filter2_d_150_2)">
<path d="M60.8123 112.94L60.1163 112.244C59.4863 111.614 59.9325 110.537 60.8234 110.537H79.5631C79.8283 110.537 80.0827 110.642 80.2702 110.83L80.9663 111.526C81.5962 112.156 81.1501 113.233 80.2592 113.233H61.5194C61.2542 113.233 60.9998 113.128 60.8123 112.94Z" fill="#3B3A59"/>
<path d="M60.8123 112.94L60.1163 112.244C59.4863 111.614 59.9325 110.537 60.8234 110.537H79.5631C79.8283 110.537 80.0827 110.642 80.2702 110.83L80.9663 111.526C81.5962 112.156 81.1501 113.233 80.2592 113.233H61.5194C61.2542 113.233 60.9998 113.128 60.8123 112.94Z" stroke="#3B3A59"/>
</g>
<g filter="url(#filter3_d_150_2)">
<path d="M114.93 120.942L112.484 111.158C112.406 110.843 112.644 110.537 112.969 110.537H133.507C133.736 110.537 133.936 110.693 133.992 110.916L136.438 120.7C136.517 121.015 136.278 121.321 135.953 121.321H115.416C115.186 121.321 114.986 121.165 114.93 120.942Z" fill="#13007D"/>
<path d="M114.93 120.942L112.484 111.158C112.406 110.843 112.644 110.537 112.969 110.537H133.507C133.736 110.537 133.936 110.693 133.992 110.916L136.438 120.7C136.517 121.015 136.278 121.321 135.953 121.321H115.416C115.186 121.321 114.986 121.165 114.93 120.942Z" stroke="#1811D5" stroke-width="0.2"/>
</g>
<path d="M102.482 153.673L93.457 158.576L93.6158 166.955L102.482 162.512V153.673Z" fill="#BE1E28" stroke="#BE1E28"/>
<path d="M104.525 155.035L95.5 159.938L95.6587 168.317L104.525 163.874V155.035Z" fill="#FC9021" stroke="#F7941D"/>
<path d="M107.079 156.568L98.0547 161.471L98.2134 169.849L107.079 165.407V156.568Z" fill="#13007D" stroke="#13007D"/>
<path d="M92.3145 176.918H91.5117V176.67H92.6582V178.254H92.4863L92.3828 177.838C92.3672 177.904 92.3379 177.968 92.2949 178.028C92.252 178.087 92.194 178.14 92.1211 178.186C92.0482 178.231 91.959 178.267 91.8535 178.293C91.7493 178.32 91.6283 178.334 91.4902 178.334C91.2832 178.334 91.1016 178.294 90.9453 178.213C90.7891 178.132 90.6582 178.02 90.5527 177.877C90.4486 177.734 90.3698 177.563 90.3164 177.365C90.2643 177.168 90.2383 176.952 90.2383 176.719C90.2383 176.445 90.2682 176.208 90.3281 176.006C90.388 175.804 90.4746 175.637 90.5879 175.504C90.7012 175.371 90.8392 175.272 91.002 175.207C91.1647 175.142 91.349 175.11 91.5547 175.11C91.6302 175.11 91.707 175.115 91.7852 175.125C91.8633 175.134 91.9401 175.149 92.0156 175.17C92.0924 175.191 92.1667 175.218 92.2383 175.252C92.3112 175.285 92.3802 175.324 92.4453 175.371L92.3164 175.635C92.2799 175.604 92.235 175.574 92.1816 175.547C92.1283 175.52 92.0677 175.496 92 175.475C91.9323 175.454 91.8587 175.438 91.7793 175.426C91.7012 175.413 91.6185 175.406 91.5312 175.406C91.3841 175.406 91.2546 175.432 91.1426 175.485C91.0306 175.535 90.9362 175.614 90.8594 175.721C90.7839 175.828 90.7266 175.963 90.6875 176.127C90.6497 176.29 90.6309 176.483 90.6309 176.707C90.6309 176.921 90.6465 177.11 90.6777 177.276C90.709 177.44 90.7598 177.578 90.8301 177.692C90.9004 177.805 90.9928 177.891 91.1074 177.949C91.222 178.008 91.3626 178.037 91.5293 178.037C91.6413 178.037 91.7448 178.028 91.8398 178.008C91.9362 177.988 92.0195 177.957 92.0898 177.912C92.1602 177.867 92.2148 177.809 92.2539 177.738C92.2943 177.667 92.3145 177.579 92.3145 177.475V176.918Z" fill="#130177"/>
<path d="M94.0371 175.254V178.254H96.0371V177.932H94.4333V175.576H96.0116V175.254H94.0371Z" fill="#130177"/>
<path d="M94.4869 176.492H95.8365V176.904H94.4869V176.492Z" fill="#B90F0F"/>
<path d="M99.3691 178.254L97.7148 175.512V178.254H97.3359V175.17H97.8477L99.4766 177.893V175.17H99.8555V178.254H99.3691Z" fill="#130177"/>
<path d="M102.592 175.561V178.254H101.812V175.561H100.998V175.07H103.393V175.561H102.592ZM103.662 178.254V175.07H105.842V175.561H104.439V176.371H105.66V176.85H104.439V177.776H105.859V178.254H103.662ZM106.982 176.674C106.982 177.036 107.041 177.306 107.158 177.483C107.277 177.66 107.453 177.748 107.688 177.748C107.802 177.748 107.915 177.732 108.025 177.699C108.136 177.666 108.249 177.608 108.365 177.528L108.574 178.074C108.535 178.108 108.483 178.14 108.418 178.168C108.354 178.197 108.281 178.222 108.197 178.242C108.115 178.263 108.025 178.279 107.926 178.291C107.827 178.303 107.723 178.309 107.613 178.309C107.396 178.309 107.201 178.272 107.027 178.199C106.854 178.126 106.707 178.02 106.586 177.879C106.465 177.738 106.372 177.565 106.307 177.36C106.242 177.154 106.209 176.918 106.209 176.653C106.209 176.382 106.241 176.144 106.305 175.94C106.37 175.735 106.463 175.565 106.584 175.428C106.705 175.291 106.852 175.189 107.025 175.121C107.199 175.052 107.394 175.018 107.611 175.018C107.687 175.018 107.767 175.022 107.852 175.029C107.936 175.036 108.021 175.049 108.105 175.069C108.19 175.087 108.273 175.112 108.354 175.143C108.436 175.174 108.511 175.214 108.58 175.262L108.367 175.809C108.298 175.765 108.234 175.727 108.174 175.697C108.114 175.668 108.055 175.644 107.998 175.627C107.942 175.609 107.887 175.596 107.832 175.588C107.779 175.58 107.724 175.576 107.668 175.576C107.551 175.576 107.449 175.597 107.363 175.639C107.277 175.679 107.206 175.744 107.148 175.832C107.092 175.921 107.051 176.035 107.023 176.174C106.996 176.312 106.982 176.479 106.982 176.674ZM110.812 176.846H109.742V178.254H108.963V175.07H109.742V176.367H110.812V175.07H111.592V178.254H110.812V176.846Z" fill="#130177"/>
<path d="M70.0955 30.0835L61.7468 30.0488L61.3662 24.6757L69.684 24.7103L70.0955 30.0835Z" fill="#BAB6D9" stroke="#8684AB" stroke-width="0.2"/>
<path d="M71.0623 38.0876L62.7136 38.0529L62.333 32.6798L70.6508 32.7144L71.0623 38.0876Z" fill="#BAB6D9" stroke="#8684AB" stroke-width="0.2"/>
<path d="M72.0291 46.0917L63.6804 46.057L63.2998 40.6839L71.6176 40.7185L72.0291 46.0917Z" fill="#BAB6D9" stroke="#8684AB" stroke-width="0.2"/>
<path d="M81.0623 38.1291L72.7136 38.0944L72.333 32.7214L80.6508 32.7559L81.0623 38.1291Z" fill="#BAB6D9" stroke="#8684AB" stroke-width="0.2"/>
<path d="M82.0291 46.1332L73.6804 46.0985L73.2998 40.7255L81.6176 40.76L82.0291 46.1332Z" fill="#BAB6D9" stroke="#8684AB" stroke-width="0.2"/>
<path d="M80.0955 30.125L71.7468 30.0904L71.3662 24.7173L79.684 24.7519L80.0955 30.125Z" fill="#BAB6D9" stroke="#8684AB" stroke-width="0.2"/>
<path d="M73.5213 57.8842L65.1726 57.8495L64.792 52.4764L73.1098 52.511L73.5213 57.8842Z" fill="#BAB6D9" stroke="#8684AB" stroke-width="0.2"/>
<path d="M74.4881 65.8883L66.1394 65.8536L65.7588 60.4805L74.0766 60.5151L74.4881 65.8883Z" fill="#BAB6D9" stroke="#8684AB" stroke-width="0.2"/>
<path d="M75.4549 73.8924L67.1062 73.8577L66.7256 68.4846L75.0434 68.5192L75.4549 73.8924Z" fill="#BAB6D9" stroke="#8684AB" stroke-width="0.2"/>
<path d="M84.4881 65.9298L76.1394 65.8951L75.7588 60.5221L84.0766 60.5566L84.4881 65.9298Z" fill="#BAB6D9" stroke="#8684AB" stroke-width="0.2"/>
<path d="M85.4549 73.9339L77.1062 73.8992L76.7256 68.5262L85.0434 68.5607L85.4549 73.9339Z" fill="#BAB6D9" stroke="#8684AB" stroke-width="0.2"/>
<path d="M83.5213 57.9257L75.1726 57.8911L74.792 52.518L83.1098 52.5526L83.5213 57.9257Z" fill="#BAB6D9" stroke="#8684AB" stroke-width="0.2"/>
<path d="M97.9832 58.9035L89.6345 58.8688L89.2539 53.4957L97.5717 53.5303L97.9832 58.9035Z" fill="#BAB6D9" stroke="#8684AB" stroke-width="0.2"/>
<path d="M98.95 66.9076L90.6013 66.8729L90.2207 61.4998L98.5385 61.5344L98.95 66.9076Z" fill="#BAB6D9" stroke="#8684AB" stroke-width="0.2"/>
<path d="M99.9168 74.9117L91.5681 74.877L91.1875 69.5039L99.5053 69.5385L99.9168 74.9117Z" fill="#BAB6D9" stroke="#8684AB" stroke-width="0.2"/>
<path d="M108.95 66.9491L100.601 66.9144L100.221 61.5414L108.538 61.5759L108.95 66.9491Z" fill="#BAB6D9" stroke="#8684AB" stroke-width="0.2"/>
<path d="M109.917 74.9532L101.568 74.9185L101.188 69.5455L109.505 69.58L109.917 74.9532Z" fill="#BAB6D9" stroke="#8684AB" stroke-width="0.2"/>
<path d="M107.983 58.945L99.6345 58.9103L99.2539 53.5373L107.572 53.5719L107.983 58.945Z" fill="#BAB6D9" stroke="#8684AB" stroke-width="0.2"/>
<path d="M94.9256 29.346L86.5769 29.3113L86.1963 23.9383L94.5141 23.9728L94.9256 29.346Z" fill="#BAB6D9" stroke="#8684AB" stroke-width="0.2"/>
<path d="M95.8924 37.3501L87.5437 37.3154L87.1631 31.9424L95.4809 31.9769L95.8924 37.3501Z" fill="#BAB6D9" stroke="#8684AB" stroke-width="0.2"/>
<path d="M96.8592 45.3542L88.5105 45.3195L88.1299 39.9465L96.4477 39.981L96.8592 45.3542Z" fill="#BAB6D9" stroke="#8684AB" stroke-width="0.2"/>
<path d="M105.892 37.3917L97.5437 37.357L97.1631 31.9839L105.481 32.0185L105.892 37.3917Z" fill="#BAB6D9" stroke="#8684AB" stroke-width="0.2"/>
<path d="M106.859 45.3957L98.5105 45.3611L98.1299 39.988L106.448 40.0226L106.859 45.3957Z" fill="#BAB6D9" stroke="#8684AB" stroke-width="0.2"/>
<path d="M104.926 29.3876L96.5769 29.3529L96.1963 23.9798L104.514 24.0144L104.926 29.3876Z" fill="#BAB6D9" stroke="#8684AB" stroke-width="0.2"/>
</g>
<g filter="url(#filter4_d_150_2)">
<path d="M20.665 225.466V208.594C20.665 208.041 21.1128 207.594 21.665 207.594H157.162C157.714 207.594 158.162 208.041 158.162 208.594V225.466C158.162 226.018 157.714 226.466 157.162 226.466H21.665C21.1128 226.466 20.665 226.018 20.665 225.466Z" fill="#66658F"/>
</g>
<defs>
<filter id="filter0_d_150_2" x="13.5723" y="0.252701" width="132.208" height="219.537" filterUnits="userSpaceOnUse" color-interpolation-filters="sRGB">
<feFlood flood-opacity="0" result="BackgroundImageFix"/>
<feColorMatrix in="SourceAlpha" type="matrix" values="0 0 0 0 0 0 0 0 0 0 0 0 0 0 0 0 0 0 127 0" result="hardAlpha"/>
<feOffset dx="-8" dy="5"/>
<feGaussianBlur stdDeviation="2"/>
<feComposite in2="hardAlpha" operator="out"/>
<feColorMatrix type="matrix" values="0 0 0 0 0 0 0 0 0 0 0 0 0 0 0 0 0 0 0.25 0"/>
<feBlend mode="normal" in2="BackgroundImageFix" result="effect1_dropShadow_150_2"/>
<feBlend mode="normal" in="SourceGraphic" in2="effect1_dropShadow_150_2" result="shape"/>
</filter>
<filter id="filter1_d_150_2" x="80.9795" y="107.037" width="33.043" height="34.6122" filterUnits="userSpaceOnUse" color-interpolation-filters="sRGB">
<feFlood flood-opacity="0" result="BackgroundImageFix"/>
<feColorMatrix in="SourceAlpha" type="matrix" values="0 0 0 0 0 0 0 0 0 0 0 0 0 0 0 0 0 0 127 0" result="hardAlpha"/>
<feOffset dy="1"/>
<feGaussianBlur stdDeviation="2"/>
<feComposite in2="hardAlpha" operator="out"/>
<feColorMatrix type="matrix" values="0 0 0 0 0 0 0 0 0 0 0 0 0 0 0 0 0 0 0.25 0"/>
<feBlend mode="normal" in2="BackgroundImageFix" result="effect1_dropShadow_150_2"/>
<feBlend mode="normal" in="SourceGraphic" in2="effect1_dropShadow_150_2" result="shape"/>
</filter>
<filter id="filter2_d_150_2" x="55.3203" y="107.037" width="30.4414" height="11.696" filterUnits="userSpaceOnUse" color-interpolation-filters="sRGB">
<feFlood flood-opacity="0" result="BackgroundImageFix"/>
<feColorMatrix in="SourceAlpha" type="matrix" values="0 0 0 0 0 0 0 0 0 0 0 0 0 0 0 0 0 0 127 0" result="hardAlpha"/>
<feOffset dy="1"/>
<feGaussianBlur stdDeviation="2"/>
<feComposite in2="hardAlpha" operator="out"/>
<feColorMatrix type="matrix" values="0 0 0 0 0 0 0 0 0 0 0 0 0 0 0 0 0 0 0.25 0"/>
<feBlend mode="normal" in2="BackgroundImageFix" result="effect1_dropShadow_150_2"/>
<feBlend mode="normal" in="SourceGraphic" in2="effect1_dropShadow_150_2" result="shape"/>
</filter>
<filter id="filter3_d_150_2" x="108.369" y="107.437" width="32.1836" height="18.9841" filterUnits="userSpaceOnUse" color-interpolation-filters="sRGB">
<feFlood flood-opacity="0" result="BackgroundImageFix"/>
<feColorMatrix in="SourceAlpha" type="matrix" values="0 0 0 0 0 0 0 0 0 0 0 0 0 0 0 0 0 0 127 0" result="hardAlpha"/>
<feOffset dy="1"/>
<feGaussianBlur stdDeviation="2"/>
<feComposite in2="hardAlpha" operator="out"/>
<feColorMatrix type="matrix" values="0 0 0 0 0 0 0 0 0 0 0 0 0 0 0 0 0 0 0.25 0"/>
<feBlend mode="normal" in2="BackgroundImageFix" result="effect1_dropShadow_150_2"/>
<feBlend mode="normal" in="SourceGraphic" in2="effect1_dropShadow_150_2" result="shape"/>
</filter>
<filter id="filter4_d_150_2" x="12.665" y="205.594" width="145.497" height="26.8721" filterUnits="userSpaceOnUse" color-interpolation-filters="sRGB">
<feFlood flood-opacity="0" result="BackgroundImageFix"/>
<feColorMatrix in="SourceAlpha" type="matrix" values="0 0 0 0 0 0 0 0 0 0 0 0 0 0 0 0 0 0 127 0" result="hardAlpha"/>
<feOffset dx="-4" dy="2"/>
<feGaussianBlur stdDeviation="2"/>
<feComposite in2="hardAlpha" operator="out"/>
<feColorMatrix type="matrix" values="0 0 0 0 0 0 0 0 0 0 0 0 0 0 0 0 0 0 0.25 0"/>
<feBlend mode="normal" in2="BackgroundImageFix" result="effect1_dropShadow_150_2"/>
<feBlend mode="normal" in="SourceGraphic" in2="effect1_dropShadow_150_2" result="shape"/>
</filter>
</defs>
</svg>
